<svg xmlns="http://www.w3.org/2000/svg" viewBox="0 0 1920 1080" width="1920" height="1080">
  <defs>
    <!-- Sky gradient: golden hour dusk -->
    <linearGradient id="sky" x1="0" y1="0" x2="0" y2="1">
      <stop offset="0%" stop-color="#0A0E1A"/>
      <stop offset="25%" stop-color="#0D1525"/>
      <stop offset="50%" stop-color="#1A1E35"/>
      <stop offset="70%" stop-color="#2A2015"/>
      <stop offset="85%" stop-color="#3D2A10"/>
      <stop offset="95%" stop-color="#4A3010"/>
      <stop offset="100%" stop-color="#2A1A08"/>
    </linearGradient>

    <!-- Sunset glow radial -->
    <radialGradient id="sunGlow" cx="50%" cy="58%" r="35%">
      <stop offset="0%" stop-color="#D4831A" stop-opacity="0.55"/>
      <stop offset="30%" stop-color="#B5621A" stop-opacity="0.3"/>
      <stop offset="60%" stop-color="#8B4513" stop-opacity="0.12"/>
      <stop offset="100%" stop-color="#0A0E1A" stop-opacity="0"/>
    </radialGradient>

    <!-- Gold ambient light on arch -->
    <radialGradient id="archGlow" cx="50%" cy="50%" r="50%">
      <stop offset="0%" stop-color="#C9A84C" stop-opacity="0.25"/>
      <stop offset="50%" stop-color="#A07830" stop-opacity="0.1"/>
      <stop offset="100%" stop-color="#0A0E1A" stop-opacity="0"/>
    </radialGradient>

    <!-- Road gradient -->
    <linearGradient id="road" x1="0" y1="0" x2="0" y2="1">
      <stop offset="0%" stop-color="#1A1408"/>
      <stop offset="50%" stop-color="#100E08"/>
      <stop offset="100%" stop-color="#080808"/>
    </linearGradient>

    <!-- Pillar stone gradient -->
    <linearGradient id="pillarL" x1="0" y1="0" x2="1" y2="0">
      <stop offset="0%" stop-color="#1A1205"/>
      <stop offset="30%" stop-color="#2E2010"/>
      <stop offset="60%" stop-color="#3A2A14"/>
      <stop offset="80%" stop-color="#2A1E0A"/>
      <stop offset="100%" stop-color="#1A1408"/>
    </linearGradient>
    <linearGradient id="pillarR" x1="0" y1="0" x2="1" y2="0">
      <stop offset="0%" stop-color="#1A1408"/>
      <stop offset="20%" stop-color="#2A1E0A"/>
      <stop offset="40%" stop-color="#3A2A14"/>
      <stop offset="70%" stop-color="#2E2010"/>
      <stop offset="100%" stop-color="#1A1205"/>
    </linearGradient>

    <!-- Wall gradient -->
    <linearGradient id="wallGrad" x1="0" y1="0" x2="0" y2="1">
      <stop offset="0%" stop-color="#1E1508"/>
      <stop offset="40%" stop-color="#161008"/>
      <stop offset="100%" stop-color="#0D0A06"/>
    </linearGradient>

    <!-- Gate light cone left -->
    <radialGradient id="lightConeL" cx="0%" cy="0%" r="100%">
      <stop offset="0%" stop-color="#E8C97A" stop-opacity="0.6"/>
      <stop offset="40%" stop-color="#C9A84C" stop-opacity="0.2"/>
      <stop offset="100%" stop-color="#C9A84C" stop-opacity="0"/>
    </radialGradient>
    <!-- Gate light cone right -->
    <radialGradient id="lightConeR" cx="100%" cy="0%" r="100%">
      <stop offset="0%" stop-color="#E8C97A" stop-opacity="0.6"/>
      <stop offset="40%" stop-color="#C9A84C" stop-opacity="0.2"/>
      <stop offset="100%" stop-color="#C9A84C" stop-opacity="0"/>
    </radialGradient>

    <!-- Tree gradient -->
    <linearGradient id="treeGrad" x1="0" y1="0" x2="0" y2="1">
      <stop offset="0%" stop-color="#0D1A08"/>
      <stop offset="100%" stop-color="#060D04"/>
    </linearGradient>

    <!-- Ground/path lit -->
    <linearGradient id="groundGlow" x1="0.5" y1="0" x2="0.5" y2="1">
      <stop offset="0%" stop-color="#C9A84C" stop-opacity="0.15"/>
      <stop offset="100%" stop-color="#C9A84C" stop-opacity="0"/>
    </linearGradient>

    <!-- Stars radial -->
    <filter id="starBlur">
      <feGaussianBlur stdDeviation="0.5"/>
    </filter>
    <filter id="softGlow">
      <feGaussianBlur stdDeviation="3" result="blur"/>
      <feMerge><feMergeNode in="blur"/><feMergeNode in="SourceGraphic"/></feMerge>
    </filter>
    <filter id="archLightFilter">
      <feGaussianBlur stdDeviation="8" result="blur"/>
      <feMerge><feMergeNode in="blur"/><feMergeNode in="SourceGraphic"/></feMerge>
    </filter>
  </defs>

  <!-- SKY -->
  <rect width="1920" height="1080" fill="url(#sky)"/>

  <!-- Sunset radial glow low horizon -->
  <ellipse cx="960" cy="630" rx="650" ry="280" fill="url(#sunGlow)"/>

  <!-- Stars (subtle) -->
  <g filter="url(#starBlur)" opacity="0.7">
    <circle cx="120" cy="60" r="1" fill="#E8D9A0"/>
    <circle cx="340" cy="30" r="1.2" fill="#F0E8C0"/>
    <circle cx="580" cy="80" r="0.8" fill="#E0D090"/>
    <circle cx="760" cy="20" r="1" fill="#E8D9A0"/>
    <circle cx="950" cy="50" r="1.5" fill="#F5ECC5"/>
    <circle cx="1150" cy="35" r="0.9" fill="#E8D9A0"/>
    <circle cx="1380" cy="70" r="1.1" fill="#EDE0B0"/>
    <circle cx="1620" cy="25" r="1.3" fill="#F0E8C0"/>
    <circle cx="1800" cy="55" r="0.8" fill="#E8D9A0"/>
    <circle cx="200" cy="110" r="0.7" fill="#E0D090"/>
    <circle cx="450" cy="130" r="1" fill="#E8D9A0"/>
    <circle cx="700" cy="100" r="0.6" fill="#F0E8C0"/>
    <circle cx="1100" cy="120" r="0.9" fill="#E8D9A0"/>
    <circle cx="1500" cy="90" r="1.1" fill="#EDE0B0"/>
    <circle cx="1750" cy="140" r="0.7" fill="#E8D9A0"/>
    <circle cx="80" cy="180" r="0.8" fill="#F0E8C0"/>
    <circle cx="880" cy="160" r="0.6" fill="#E8D9A0"/>
    <circle cx="1680" cy="170" r="0.9" fill="#EDE0B0"/>
  </g>

  <!-- DISTANT TREES LEFT (silhouette) -->
  <g opacity="0.9">
    <!-- Far left tree cluster -->
    <rect x="0" y="520" width="18" height="180" fill="#060D04"/>
    <ellipse cx="9" cy="510" rx="28" ry="85" fill="url(#treeGrad)"/>
    <rect x="35" y="540" width="14" height="160" fill="#060D04"/>
    <ellipse cx="42" cy="530" rx="22" ry="70" fill="url(#treeGrad)"/>
    <rect x="70" y="510" width="16" height="190" fill="#060D04"/>
    <ellipse cx="78" cy="498" rx="30" ry="90" fill="url(#treeGrad)"/>
    <rect x="110" y="530" width="12" height="170" fill="#060D04"/>
    <ellipse cx="116" cy="520" rx="20" ry="65" fill="url(#treeGrad)"/>
    <rect x="145" y="545" width="15" height="155" fill="#060D04"/>
    <ellipse cx="152" cy="535" rx="25" ry="72" fill="url(#treeGrad)"/>
    <rect x="185" y="520" width="13" height="180" fill="#060D04"/>
    <ellipse cx="191" cy="508" rx="22" ry="80" fill="url(#treeGrad)"/>
    <rect x="215" y="535" width="14" height="165" fill="#060D04"/>
    <ellipse cx="222" cy="524" rx="24" ry="68" fill="url(#treeGrad)"/>
    <!-- Mid-left trees nearer camera -->
    <rect x="255" y="500" width="20" height="200" fill="#060D04"/>
    <ellipse cx="265" cy="486" rx="38" ry="105" fill="url(#treeGrad)"/>
    <rect x="310" y="515" width="17" height="185" fill="#060D04"/>
    <ellipse cx="318" cy="502" rx="32" ry="95" fill="url(#treeGrad)"/>
    <rect x="358" y="508" width="18" height="192" fill="#060D04"/>
    <ellipse cx="367" cy="494" rx="35" ry="100" fill="url(#treeGrad)"/>
    <rect x="408" y="495" width="22" height="205" fill="#060D04"/>
    <ellipse cx="419" cy="480" rx="42" ry="110" fill="url(#treeGrad)"/>
    <rect x="468" y="510" width="16" height="190" fill="#060D04"/>
    <ellipse cx="476" cy="496" rx="30" ry="92" fill="url(#treeGrad)"/>
    <rect x="510" y="520" width="14" height="180" fill="#060D04"/>
    <ellipse cx="517" cy="507" rx="26" ry="85" fill="url(#treeGrad)"/>
    <rect x="545" y="505" width="19" height="195" fill="#060D04"/>
    <ellipse cx="554" cy="491" rx="36" ry="105" fill="url(#treeGrad)"/>
    <rect x="595" y="512" width="15" height="188" fill="#060D04"/>
    <ellipse cx="602" cy="499" rx="28" ry="90" fill="url(#treeGrad)"/>
    <rect x="630" y="508" width="17" height="192" fill="#060D04"/>
    <ellipse cx="638" cy="494" rx="32" ry="98" fill="url(#treeGrad)"/>
    <rect x="672" y="498" width="21" height="202" fill="#060D04"/>
    <ellipse cx="682" cy="483" rx="40" ry="108" fill="url(#treeGrad)"/>
    <rect x="722" y="515" width="16" height="185" fill="#060D04"/>
    <ellipse cx="730" cy="502" rx="30" ry="90" fill="url(#treeGrad)"/>
    <rect x="758" y="505" width="18" height="195" fill="#060D04"/>
    <ellipse cx="767" cy="491" rx="34" ry="100" fill="url(#treeGrad)"/>
  </g>

  <!-- DISTANT TREES RIGHT (mirror) -->
  <g opacity="0.9">
    <rect x="1145" y="505" width="18" height="195" fill="#060D04"/>
    <ellipse cx="1154" cy="491" rx="34" ry="100" fill="url(#treeGrad)"/>
    <rect x="1184" y="515" width="16" height="185" fill="#060D04"/>
    <ellipse cx="1192" cy="502" rx="30" ry="90" fill="url(#treeGrad)"/>
    <rect x="1220" y="498" width="21" height="202" fill="#060D04"/>
    <ellipse cx="1230" cy="483" rx="40" ry="108" fill="url(#treeGrad)"/>
    <rect x="1270" y="508" width="17" height="192" fill="#060D04"/>
    <ellipse cx="1278" cy="494" rx="32" ry="98" fill="url(#treeGrad)"/>
    <rect x="1307" y="512" width="15" height="188" fill="#060D04"/>
    <ellipse cx="1314" cy="499" rx="28" ry="90" fill="url(#treeGrad)"/>
    <rect x="1337" y="505" width="19" height="195" fill="#060D04"/>
    <ellipse cx="1346" cy="491" rx="36" ry="105" fill="url(#treeGrad)"/>
    <rect x="1380" y="520" width="14" height="180" fill="#060D04"/>
    <ellipse cx="1387" cy="507" rx="26" ry="85" fill="url(#treeGrad)"/>
    <rect x="1412" y="510" width="16" height="190" fill="#060D04"/>
    <ellipse cx="1420" cy="496" rx="30" ry="92" fill="url(#treeGrad)"/>
    <rect x="1448" y="495" width="22" height="205" fill="#060D04"/>
    <ellipse cx="1459" cy="480" rx="42" ry="110" fill="url(#treeGrad)"/>
    <rect x="1508" y="508" width="18" height="192" fill="#060D04"/>
    <ellipse cx="1517" cy="494" rx="35" ry="100" fill="url(#treeGrad)"/>
    <rect x="1552" y="515" width="17" height="185" fill="#060D04"/>
    <ellipse cx="1560" cy="502" rx="32" ry="95" fill="url(#treeGrad)"/>
    <rect x="1595" y="500" width="20" height="200" fill="#060D04"/>
    <ellipse cx="1605" cy="486" rx="38" ry="105" fill="url(#treeGrad)"/>
    <rect x="1647" y="535" width="14" height="165" fill="#060D04"/>
    <ellipse cx="1654" cy="524" rx="24" ry="68" fill="url(#treeGrad)"/>
    <rect x="1680" y="520" width="13" height="180" fill="#060D04"/>
    <ellipse cx="1686" cy="508" rx="22" ry="80" fill="url(#treeGrad)"/>
    <rect x="1712" y="545" width="15" height="155" fill="#060D04"/>
    <ellipse cx="1719" cy="535" rx="25" ry="72" fill="url(#treeGrad)"/>
    <rect x="1748" y="530" width="12" height="170" fill="#060D04"/>
    <ellipse cx="1754" cy="520" rx="20" ry="65" fill="url(#treeGrad)"/>
    <rect x="1776" y="510" width="16" height="190" fill="#060D04"/>
    <ellipse cx="1784" cy="498" rx="30" ry="90" fill="url(#treeGrad)"/>
    <rect x="1816" y="540" width="14" height="160" fill="#060D04"/>
    <ellipse cx="1823" cy="530" rx="22" ry="70" fill="url(#treeGrad)"/>
    <rect x="1848" y="520" width="18" height="180" fill="#060D04"/>
    <ellipse cx="1857" cy="510" rx="28" ry="85" fill="url(#treeGrad)"/>
    <rect x="1888" y="525" width="32" height="175" fill="#060D04"/>
    <ellipse cx="1904" cy="513" rx="38" ry="88" fill="url(#treeGrad)"/>
  </g>

  <!-- GROUND / ROAD - wide approach avenue -->
  <rect x="0" y="700" width="1920" height="380" fill="url(#road)"/>
  <!-- Road centre line perspective -->
  <polygon points="960,700 980,700 980,1080 940,1080" fill="#1A1408" opacity="0.4"/>
  <!-- Road surface subtle sheen -->
  <polygon points="800,700 1120,700 1920,1080 0,1080" fill="#C9A84C" opacity="0.02"/>

  <!-- Ground light projection from gate lamps -->
  <ellipse cx="960" cy="760" rx="260" ry="80" fill="url(#groundGlow)" opacity="0.7"/>
  <ellipse cx="960" cy="720" rx="140" ry="40" fill="#C9A84C" opacity="0.08"/>

  <!-- BOUNDARY WALLS -->
  <!-- Left wall -->
  <rect x="0" y="590" width="720" height="120" fill="url(#wallGrad)"/>
  <!-- Wall cap -->
  <rect x="0" y="584" width="720" height="10" fill="#2A1E0A"/>
  <!-- Wall texture lines -->
  <line x1="0" y1="610" x2="720" y2="610" stroke="#1A1205" stroke-width="1" opacity="0.4"/>
  <line x1="0" y1="640" x2="720" y2="640" stroke="#1A1205" stroke-width="1" opacity="0.3"/>
  <line x1="0" y1="670" x2="720" y2="670" stroke="#1A1205" stroke-width="1" opacity="0.4"/>
  <!-- Vertical wall blocks -->
  <line x1="120" y1="590" x2="120" y2="710" stroke="#1A1205" stroke-width="1" opacity="0.3"/>
  <line x1="240" y1="590" x2="240" y2="710" stroke="#1A1205" stroke-width="1" opacity="0.3"/>
  <line x1="360" y1="590" x2="360" y2="710" stroke="#1A1205" stroke-width="1" opacity="0.3"/>
  <line x1="480" y1="590" x2="480" y2="710" stroke="#1A1205" stroke-width="1" opacity="0.3"/>
  <line x1="600" y1="590" x2="600" y2="710" stroke="#1A1205" stroke-width="1" opacity="0.3"/>

  <!-- Right wall -->
  <rect x="1200" y="590" width="720" height="120" fill="url(#wallGrad)"/>
  <rect x="1200" y="584" width="720" height="10" fill="#2A1E0A"/>
  <line x1="1200" y1="610" x2="1920" y2="610" stroke="#1A1205" stroke-width="1" opacity="0.4"/>
  <line x1="1200" y1="640" x2="1920" y2="640" stroke="#1A1205" stroke-width="1" opacity="0.3"/>
  <line x1="1200" y1="670" x2="1920" y2="670" stroke="#1A1205" stroke-width="1" opacity="0.4"/>
  <line x1="1320" y1="590" x2="1320" y2="710" stroke="#1A1205" stroke-width="1" opacity="0.3"/>
  <line x1="1440" y1="590" x2="1440" y2="710" stroke="#1A1205" stroke-width="1" opacity="0.3"/>
  <line x1="1560" y1="590" x2="1560" y2="710" stroke="#1A1205" stroke-width="1" opacity="0.3"/>
  <line x1="1680" y1="590" x2="1680" y2="710" stroke="#1A1205" stroke-width="1" opacity="0.3"/>
  <line x1="1800" y1="590" x2="1800" y2="710" stroke="#1A1205" stroke-width="1" opacity="0.3"/>

  <!-- GATE LIGHT SPILLS on walls -->
  <ellipse cx="760" cy="650" rx="120" ry="60" fill="#C9A84C" opacity="0.05"/>
  <ellipse cx="1160" cy="650" rx="120" ry="60" fill="#C9A84C" opacity="0.05"/>

  <!-- LEFT MAIN PILLAR -->
  <rect x="730" y="360" width="110" height="350" fill="url(#pillarL)"/>
  <!-- Pillar depth / shadow side -->
  <rect x="730" y="360" width="12" height="350" fill="#0A0806" opacity="0.5"/>
  <!-- Pillar top cap -->
  <rect x="724" y="352" width="122" height="14" fill="#3A2A14"/>
  <rect x="720" y="342" width="130" height="14" fill="#2E2010"/>
  <!-- Gold accent band -->
  <rect x="726" y="390" width="118" height="3" fill="#C9A84C" opacity="0.6"/>
  <rect x="726" y="580" width="118" height="3" fill="#C9A84C" opacity="0.4"/>
  <!-- Pillar texture blocks -->
  <line x1="730" y1="420" x2="840" y2="420" stroke="#1A1205" stroke-width="1" opacity="0.4"/>
  <line x1="730" y1="460" x2="840" y2="460" stroke="#1A1205" stroke-width="1" opacity="0.4"/>
  <line x1="730" y1="500" x2="840" y2="500" stroke="#1A1205" stroke-width="1" opacity="0.4"/>
  <line x1="730" y1="540" x2="840" y2="540" stroke="#1A1205" stroke-width="1" opacity="0.4"/>
  <!-- Pillar vertical seams -->
  <line x1="785" y1="360" x2="785" y2="710" stroke="#1A1205" stroke-width="0.5" opacity="0.3"/>
  <!-- Lamp fixture on pillar top -->
  <rect x="769" y="330" width="32" height="18" fill="#2A1E08"/>
  <rect x="773" y="322" width="24" height="12" fill="#1E1608"/>
  <!-- Lamp glow -->
  <ellipse cx="785" cy="326" rx="18" ry="14" fill="#E8C97A" opacity="0.9" filter="url(#archLightFilter)"/>
  <ellipse cx="785" cy="326" rx="8" ry="6" fill="#FFF5D0" opacity="0.95"/>

  <!-- RIGHT MAIN PILLAR (mirror) -->
  <rect x="1080" y="360" width="110" height="350" fill="url(#pillarR)"/>
  <rect x="1178" y="360" width="12" height="350" fill="#0A0806" opacity="0.5"/>
  <rect x="1074" y="352" width="122" height="14" fill="#3A2A14"/>
  <rect x="1070" y="342" width="130" height="14" fill="#2E2010"/>
  <rect x="1076" y="390" width="118" height="3" fill="#C9A84C" opacity="0.6"/>
  <rect x="1076" y="580" width="118" height="3" fill="#C9A84C" opacity="0.4"/>
  <line x1="1080" y1="420" x2="1190" y2="420" stroke="#1A1205" stroke-width="1" opacity="0.4"/>
  <line x1="1080" y1="460" x2="1190" y2="460" stroke="#1A1205" stroke-width="1" opacity="0.4"/>
  <line x1="1080" y1="500" x2="1190" y2="500" stroke="#1A1205" stroke-width="1" opacity="0.4"/>
  <line x1="1080" y1="540" x2="1190" y2="540" stroke="#1A1205" stroke-width="1" opacity="0.4"/>
  <line x1="1135" y1="360" x2="1135" y2="710" stroke="#1A1205" stroke-width="0.5" opacity="0.3"/>
  <rect x="1119" y="330" width="32" height="18" fill="#2A1E08"/>
  <rect x="1123" y="322" width="24" height="12" fill="#1E1608"/>
  <ellipse cx="1135" cy="326" rx="18" ry="14" fill="#E8C97A" opacity="0.9" filter="url(#archLightFilter)"/>
  <ellipse cx="1135" cy="326" rx="8" ry="6" fill="#FFF5D0" opacity="0.95"/>

  <!-- LAMP LIGHT CONES (volumetric light) -->
  <polygon points="785,340 680,710 890,710" fill="url(#lightConeL)" opacity="0.25"/>
  <polygon points="1135,340 1030,710 1240,710" fill="url(#lightConeR)" opacity="0.25"/>

  <!-- ARCH / GATE HEADER BAR -->
  <rect x="730" y="358" width="460" height="30" fill="#2A1E0A"/>
  <rect x="730" y="358" width="460" height="5" fill="#3A2A14"/>
  <!-- Arch top ornamental peak -->
  <polygon points="960,310 840,360 1080,360" fill="#2A1E0A"/>
  <polygon points="960,318 848,360 1072,360" fill="#241808"/>
  <!-- Arch peak cap gold trim -->
  <polygon points="960,310 955,320 965,320" fill="#C9A84C" opacity="0.8"/>
  <!-- Arch gold line trim -->
  <rect x="730" y="383" width="460" height="2" fill="#C9A84C" opacity="0.5"/>
  <line x1="730" y1="370" x2="1190" y2="370" stroke="#C9A84C" stroke-width="0.5" opacity="0.3"/>

  <!-- GATE LETTERING on arch (AVANI CITY) -->
  <text x="960" y="356" text-anchor="middle" font-family="Georgia, serif" font-size="20" font-weight="300" letter-spacing="10" fill="#C9A84C" opacity="0.85">AVANI CITY</text>

  <!-- GATE PANELS (iron gate / ornamental) -->
  <!-- Left gate panel -->
  <rect x="845" y="390" width="95" height="295" fill="#0D0A06" opacity="0.85"/>
  <!-- Gate vertical bars -->
  <rect x="850" y="390" width="5" height="295" fill="#1A1205" opacity="0.9"/>
  <rect x="866" y="390" width="5" height="295" fill="#1A1205" opacity="0.9"/>
  <rect x="882" y="390" width="5" height="295" fill="#1A1205" opacity="0.9"/>
  <rect x="898" y="390" width="5" height="295" fill="#1A1205" opacity="0.9"/>
  <rect x="914" y="390" width="5" height="295" fill="#1A1205" opacity="0.9"/>
  <rect x="930" y="390" width="5" height="295" fill="#1A1205" opacity="0.9"/>
  <!-- Gate horizontal rail top -->
  <rect x="845" y="400" width="95" height="8" fill="#1E1608"/>
  <rect x="845" y="660" width="95" height="8" fill="#1E1608"/>
  <!-- Gate gold ornamental top -->
  <line x1="845" y1="395" x2="940" y2="395" stroke="#C9A84C" stroke-width="1" opacity="0.4"/>

  <!-- Right gate panel (mirror) -->
  <rect x="980" y="390" width="95" height="295" fill="#0D0A06" opacity="0.85"/>
  <rect x="985" y="390" width="5" height="295" fill="#1A1205" opacity="0.9"/>
  <rect x="1001" y="390" width="5" height="295" fill="#1A1205" opacity="0.9"/>
  <rect x="1017" y="390" width="5" height="295" fill="#1A1205" opacity="0.9"/>
  <rect x="1033" y="390" width="5" height="295" fill="#1A1205" opacity="0.9"/>
  <rect x="1049" y="390" width="5" height="295" fill="#1A1205" opacity="0.9"/>
  <rect x="1065" y="390" width="5" height="295" fill="#1A1205" opacity="0.9"/>
  <rect x="980" y="400" width="95" height="8" fill="#1E1608"/>
  <rect x="980" y="660" width="95" height="8" fill="#1E1608"/>
  <line x1="980" y1="395" x2="1075" y2="395" stroke="#C9A84C" stroke-width="1" opacity="0.4"/>

  <!-- Gate centre gap (open) -->
  <rect x="940" y="390" width="40" height="295" fill="#060D1A" opacity="0.7"/>

  <!-- INNER DEPTH: avenue beyond gate (receding light) -->
  <polygon points="940,390 980,390 1000,700 920,700" fill="url(#groundGlow)" opacity="0.5"/>
  <polygon points="945,400 975,400 990,650 930,650" fill="#C9A84C" opacity="0.04"/>

  <!-- ARCH GLOW central luminance -->
  <ellipse cx="960" cy="420" rx="220" ry="100" fill="url(#archGlow)" filter="url(#softGlow)"/>

  <!-- FOREGROUND DARK VIGNETTE bottom -->
  <rect x="0" y="850" width="1920" height="230" fill="#060D1A" opacity="0.6"/>

  <!-- TOP VIGNETTE -->
  <rect x="0" y="0" width="1920" height="160" fill="#0A0E1A" opacity="0.7"/>

  <!-- ATMOSPHERIC HAZE mid-distance -->
  <rect x="0" y="480" width="1920" height="120" fill="#1A1408" opacity="0.15"/>

  <!-- SUBTLE GOLDEN MIST OVERLAY at gate level -->
  <rect x="600" y="320" width="720" height="80" fill="#C9A84C" opacity="0.025"/>

</svg>
